<svg width="17" height="20" viewBox="0 0 17 20" fill="none" xmlns="http://www.w3.org/2000/svg">
<path d="M13.8884 2.39617H10.7752C10.6199 1.04952 9.47418 0 8.08654 0C6.69893 0 5.55336 1.04948 5.39806 2.39617H2.28473C1.02486 2.39617 0 3.42131 0 4.68114V4.79839C0 5.76114 0.599466 6.58518 1.44394 6.92094V17.715C1.44394 18.9749 2.46892 20 3.72871 20H12.4444C13.7043 20 14.7292 18.9748 14.7292 17.715V6.92098C15.5736 6.58518 16.1731 5.76114 16.1731 4.79843V4.68119C16.1731 3.42131 15.1482 2.39617 13.8884 2.39617ZM8.08654 1.08364C8.87575 1.08364 9.5345 1.64932 9.68026 2.39617H6.4931C6.63882 1.64928 7.29761 1.08364 8.08654 1.08364ZM13.6455 17.715C13.6455 18.3774 13.1066 18.9164 12.4444 18.9164H3.72867C3.06648 18.9164 2.52754 18.3774 2.52754 17.715V7.08336H13.6455V17.715ZM15.0895 4.79839C15.0895 5.46078 14.5505 5.99976 13.8883 5.99976H2.28473C1.62254 5.99976 1.0836 5.46078 1.0836 4.79839V4.68114C1.0836 4.01875 1.62254 3.47977 2.28473 3.47977H13.8884C14.5506 3.47977 15.0895 4.01875 15.0895 4.68114L15.0895 4.79839Z" fill="white"/>
<path d="M5.18165 17.5306C5.48089 17.5306 5.72345 17.2879 5.72345 16.9888V10.8883C5.72345 10.5891 5.48085 10.3464 5.18165 10.3464C4.88246 10.3464 4.63985 10.5891 4.63985 10.8883V16.9888C4.63981 17.288 4.88242 17.5306 5.18165 17.5306Z" fill="white"/>
<path d="M8.08654 17.5306C8.38577 17.5306 8.62838 17.2879 8.62838 16.9888V10.8883C8.62838 10.5891 8.38569 10.3464 8.08654 10.3464C7.78734 10.3464 7.54474 10.5891 7.54474 10.8883V16.9888C7.54474 17.288 7.7873 17.5306 8.08654 17.5306Z" fill="white"/>
<path d="M10.9914 17.5306C11.2906 17.5306 11.5332 17.2879 11.5332 16.9888V10.8883C11.5332 10.5891 11.2906 10.3464 10.9914 10.3464C10.6921 10.3464 10.4496 10.5891 10.4496 10.8883V16.9888C10.4495 17.288 10.6922 17.5306 10.9914 17.5306Z" fill="white"/>
</svg>
