<svg width="28" height="25" viewBox="0 0 28 25" fill="none" xmlns="http://www.w3.org/2000/svg">
<path d="M26.7 13.684L23.312 6.427C23.2635 6.32777 23.1857 6.2458 23.0891 6.19216C22.9926 6.13851 22.8819 6.11578 22.772 6.127H19.891C19.7319 6.127 19.5793 6.19022 19.4667 6.30274C19.3542 6.41526 19.291 6.56787 19.291 6.727C19.291 6.88613 19.3542 7.03874 19.4667 7.15127C19.5793 7.26379 19.7319 7.327 19.891 7.327H22.38L25.169 13.327H21.75C20.991 13.3229 20.2471 13.5388 19.6082 13.9486C18.9693 14.3584 18.4628 14.9445 18.15 15.636C17.9232 16.1118 17.5662 16.5137 17.1204 16.7949C16.6745 17.0761 16.1581 17.2253 15.631 17.225H12.155C11.6276 17.225 11.1109 17.0754 10.6651 16.7936C10.2192 16.5118 9.86237 16.1094 9.636 15.633C9.32317 14.9415 8.81669 14.3554 8.1778 13.9456C7.53892 13.5358 6.79499 13.3199 6.036 13.324H2.679L5.979 7.324H7.9C8.05913 7.324 8.21174 7.26079 8.32426 7.14827C8.43679 7.03574 8.5 6.88313 8.5 6.724C8.5 6.56487 8.43679 6.41226 8.32426 6.29974C8.21174 6.18722 8.05913 6.12401 7.9 6.12401H5.618C5.51174 6.11394 5.40479 6.1339 5.30932 6.18164C5.21385 6.22937 5.1337 6.30295 5.078 6.394L1.12 13.654C1.05057 13.7156 1.00758 13.8015 1 13.894V21.361C1.023 22.1702 1.35674 22.9394 1.93194 23.5091C2.50714 24.0787 3.27962 24.4049 4.089 24.42H23.7C24.5095 24.4051 25.2821 24.079 25.8573 23.5093C26.4326 22.9397 26.7662 22.1703 26.789 21.361V13.894C26.7779 13.8175 26.7472 13.7452 26.7 13.684ZM25.59 21.36C25.5675 21.8509 25.3604 22.3153 25.0101 22.66C24.6598 23.0047 24.1922 23.2044 23.701 23.219H4.089C3.59792 23.2044 3.13047 23.0049 2.78021 22.6604C2.42995 22.3159 2.22272 21.8518 2.2 21.361V14.524H6.038C6.56512 14.5237 7.08153 14.6729 7.52736 14.9541C7.97319 15.2353 8.3302 15.6372 8.557 16.113C8.86983 16.8045 9.37631 17.3906 10.0152 17.8004C10.6541 18.2102 11.398 18.4261 12.157 18.422H15.635C16.394 18.4261 17.1379 18.2102 17.7768 17.8004C18.4157 17.3906 18.9222 16.8045 19.235 16.113C19.4618 15.6372 19.8188 15.2353 20.2646 14.9541C20.7105 14.6729 21.2269 14.5237 21.754 14.524H25.592V21.361L25.59 21.36Z" fill="white"/>
<path d="M13.475 14.884C13.577 14.9938 13.7181 15.0591 13.8678 15.0656C14.0175 15.0722 14.1638 15.0195 14.275 14.919C14.287 14.908 14.299 14.896 14.31 14.884L18.388 10.776C18.4747 10.6605 18.5167 10.5175 18.5065 10.3735C18.4962 10.2294 18.4344 10.0939 18.3323 9.99174C18.2301 9.88961 18.0946 9.82775 17.9505 9.81751C17.8065 9.80727 17.6635 9.84934 17.548 9.936L14.489 12.995V1.6C14.489 1.44087 14.4258 1.28826 14.3133 1.17574C14.2007 1.06321 14.0481 1 13.889 1C13.7299 1 13.5773 1.06321 13.4647 1.17574C13.3522 1.28826 13.289 1.44087 13.289 1.6V12.994L10.23 9.935C10.1145 9.84834 9.97153 9.80627 9.82747 9.81651C9.6834 9.82675 9.54787 9.88861 9.44574 9.99074C9.34361 10.0929 9.28175 10.2284 9.27151 10.3725C9.26128 10.5165 9.30334 10.6595 9.39 10.775L13.475 14.884Z" fill="white"/>
<path d="M26.7 13.684L23.312 6.427C23.2635 6.32777 23.1857 6.2458 23.0891 6.19216C22.9926 6.13851 22.8819 6.11578 22.772 6.127H19.891C19.7319 6.127 19.5793 6.19022 19.4667 6.30274C19.3542 6.41526 19.291 6.56787 19.291 6.727C19.291 6.88613 19.3542 7.03874 19.4667 7.15127C19.5793 7.26379 19.7319 7.327 19.891 7.327H22.38L25.169 13.327H21.75C20.991 13.3229 20.2471 13.5388 19.6082 13.9486C18.9693 14.3584 18.4628 14.9445 18.15 15.636C17.9232 16.1118 17.5662 16.5137 17.1204 16.7949C16.6745 17.0761 16.1581 17.2253 15.631 17.225H12.155C11.6276 17.225 11.1109 17.0754 10.6651 16.7936C10.2192 16.5118 9.86237 16.1094 9.636 15.633C9.32317 14.9415 8.81669 14.3554 8.1778 13.9456C7.53892 13.5358 6.79499 13.3199 6.036 13.324H2.679L5.979 7.324H7.9C8.05913 7.324 8.21174 7.26079 8.32426 7.14827C8.43679 7.03574 8.5 6.88313 8.5 6.724C8.5 6.56487 8.43679 6.41226 8.32426 6.29974C8.21174 6.18722 8.05913 6.12401 7.9 6.12401H5.618C5.51174 6.11394 5.40479 6.1339 5.30932 6.18164C5.21385 6.22937 5.1337 6.30295 5.078 6.394L1.12 13.654C1.05057 13.7156 1.00758 13.8015 1 13.894V21.361C1.023 22.1702 1.35674 22.9394 1.93194 23.5091C2.50714 24.0787 3.27962 24.4049 4.089 24.42H23.7C24.5095 24.4051 25.2821 24.079 25.8573 23.5093C26.4326 22.9397 26.7662 22.1703 26.789 21.361V13.894C26.7779 13.8175 26.7472 13.7452 26.7 13.684ZM25.59 21.36C25.5675 21.8509 25.3604 22.3153 25.0101 22.66C24.6598 23.0047 24.1922 23.2044 23.701 23.219H4.089C3.59792 23.2044 3.13047 23.0049 2.78021 22.6604C2.42995 22.3159 2.22272 21.8518 2.2 21.361V14.524H6.038C6.56512 14.5237 7.08153 14.6729 7.52736 14.9541C7.97319 15.2353 8.3302 15.6372 8.557 16.113C8.86983 16.8045 9.37631 17.3906 10.0152 17.8004C10.6541 18.2102 11.398 18.4261 12.157 18.422H15.635C16.394 18.4261 17.1379 18.2102 17.7768 17.8004C18.4157 17.3906 18.9222 16.8045 19.235 16.113C19.4618 15.6372 19.8188 15.2353 20.2646 14.9541C20.7105 14.6729 21.2269 14.5237 21.754 14.524H25.592V21.361L25.59 21.36Z" stroke="white" stroke-width="0.5"/>
<path d="M13.475 14.884C13.577 14.9938 13.7181 15.0591 13.8678 15.0656C14.0175 15.0722 14.1638 15.0195 14.275 14.919C14.287 14.908 14.299 14.896 14.31 14.884L18.388 10.776C18.4747 10.6605 18.5167 10.5175 18.5065 10.3735C18.4962 10.2294 18.4344 10.0939 18.3323 9.99174C18.2301 9.88961 18.0946 9.82775 17.9505 9.81751C17.8065 9.80727 17.6635 9.84934 17.548 9.936L14.489 12.995V1.6C14.489 1.44087 14.4258 1.28826 14.3133 1.17574C14.2007 1.06321 14.0481 1 13.889 1C13.7299 1 13.5773 1.06321 13.4647 1.17574C13.3522 1.28826 13.289 1.44087 13.289 1.6V12.994L10.23 9.935C10.1145 9.84834 9.97153 9.80627 9.82747 9.81651C9.6834 9.82675 9.54787 9.88861 9.44574 9.99074C9.34361 10.0929 9.28175 10.2284 9.27151 10.3725C9.26128 10.5165 9.30334 10.6595 9.39 10.775L13.475 14.884Z" stroke="white" stroke-width="0.5"/>
</svg>
