<svg width="23" height="23" viewBox="0 0 23 23" fill="none" xmlns="http://www.w3.org/2000/svg">
<g id="Iconly/Bold/Home">
<g id="Home">
<path id="Home_2" d="M8.39386 21.111V17.672C8.39677 17.2496 8.56662 16.8454 8.86636 16.5477C9.16611 16.2501 9.57141 16.083 9.99386 16.083H13.2259C13.6498 16.0826 14.0566 16.2498 14.3579 16.548C14.5064 16.6951 14.6243 16.8702 14.7048 17.0631C14.7853 17.256 14.8268 17.463 14.8269 17.672V21.11C14.8255 21.2909 14.8602 21.4703 14.9289 21.6377C14.9976 21.8051 15.0989 21.9571 15.2269 22.085C15.4874 22.3426 15.8395 22.4864 16.2059 22.485H18.4109C19.4394 22.4883 20.4274 22.0842 21.1589 21.361C21.5194 21.0047 21.8058 20.5803 22.0013 20.1126C22.1968 19.6448 22.2976 19.143 22.2979 18.636V8.83601C22.2975 8.42739 22.207 8.02387 22.033 7.65417C21.8589 7.28447 21.6055 6.95767 21.2909 6.69701L13.7909 0.760006C13.1571 0.254594 12.3669 -0.0139459 11.5565 0.000657214C10.746 0.0152603 9.96599 0.312091 9.35086 0.840006L2.01986 6.70701C1.69055 6.95984 1.422 7.28317 1.23391 7.6533C1.04582 8.02342 0.942957 8.43095 0.932861 8.84601L0.932861 18.632C0.934697 19.1405 1.03667 19.6436 1.23295 20.1127C1.42923 20.5818 1.71599 21.0076 2.07684 21.3658C2.43769 21.7241 2.86556 22.0077 3.33604 22.2006C3.80652 22.3935 4.31038 22.4918 4.81886 22.49H6.97386C7.33912 22.4911 7.69002 22.3478 7.95017 22.0914C8.21032 21.835 8.35864 21.4862 8.36286 21.121L8.39386 21.111Z" fill="#97AABD"/>
</g>
</g>
</svg>
