<svg width="137" height="44" viewBox="0 0 137 44" fill="none" xmlns="http://www.w3.org/2000/svg">
<path d="M136.567 23.3888L132.962 43.7206H127.338L129.328 32.4732L123.473 43.7206H118.744L116.898 32.4155L114.908 43.7206H109.227L112.832 23.3888H119.667L122.464 36.5684L129.76 23.3888H136.567Z" fill="#FC2121"/>
<path d="M100.924 40.4041H93.7145L92.0418 43.7206H86.1009L97.0887 23.3888H103.606L107.413 43.7206H101.443L100.924 40.4041ZM100.261 36.107L99.2517 29.5028L95.9063 36.107H100.261Z" fill="#FC2121"/>
<path d="M80.1354 27.8589L79.5586 31.2331H86.0475L85.2688 35.5302H78.78L78.1167 39.2217H85.4707L84.692 43.7206H71.6566L75.2615 23.3888H88.2681L87.4895 27.8589H80.1354Z" fill="#FC2121"/>
<path d="M65.1062 23.3888C67.2403 23.3888 68.865 23.8695 69.9801 24.8308C71.0952 25.7729 71.6528 27.0322 71.6528 28.6087C71.6528 29.0894 71.6143 29.522 71.5374 29.9065C71.3067 31.2908 70.7203 32.5117 69.7782 33.5691C68.8361 34.6073 67.5864 35.3476 66.0291 35.7898L69.2014 43.7206H62.9144L60.2035 36.2224H59.5979L58.2713 43.7206H52.5899L56.1948 23.3888H65.1062ZM60.29 32.3579H63.0875C64.5871 32.3579 65.4715 31.6465 65.7407 30.2237C65.7791 29.993 65.7984 29.8296 65.7984 29.7335C65.7984 29.2144 65.6253 28.8106 65.2793 28.5222C64.9524 28.2338 64.4621 28.0896 63.8085 28.0896H61.011L60.29 32.3579Z" fill="#FC2121"/>
<path d="M54.1035 23.3888L53.296 27.8877H47.9031L45.1056 43.7206H39.4243L42.2217 27.8877H36.8575L37.665 23.3888H54.1035Z" fill="#FC2121"/>
<path d="M25.3842 43.9226C23.0385 43.9226 21.1448 43.4419 19.7028 42.4806C18.28 41.5001 17.5687 40.0773 17.5687 38.2124C17.5687 38.0586 17.5879 37.7894 17.6263 37.4049H23.5961C23.5384 38.0586 23.673 38.5681 23.9999 38.9334C24.3267 39.2987 24.8266 39.4813 25.4995 39.4813C26.0571 39.4813 26.4993 39.3563 26.8261 39.1064C27.1722 38.8565 27.3452 38.5008 27.3452 38.0393C27.3452 37.501 27.0953 37.0588 26.5954 36.7127C26.1148 36.3666 25.3265 35.9629 24.2306 35.5015C23.1347 35.04 22.231 34.6074 21.5197 34.2037C20.8083 33.7807 20.1931 33.2135 19.6739 32.5022C19.1548 31.7716 18.8953 30.8679 18.8953 29.7912C18.8953 28.3877 19.2414 27.1861 19.9335 26.1863C20.6256 25.1673 21.587 24.3983 22.8174 23.8792C24.0672 23.3408 25.4899 23.0717 27.0857 23.0717C28.5277 23.0717 29.8062 23.3024 30.9213 23.7638C32.0365 24.206 32.9016 24.8501 33.5169 25.696C34.1514 26.542 34.4686 27.5418 34.4686 28.6953C34.4686 29.003 34.459 29.2337 34.4397 29.3875H28.3546C28.3738 29.2914 28.3835 29.1568 28.3835 28.9837C28.3835 28.5223 28.2393 28.1666 27.9509 27.9167C27.6625 27.6475 27.2683 27.5129 26.7685 27.5129C26.2493 27.5129 25.8264 27.6475 25.4995 27.9167C25.1919 28.1666 25.0381 28.5223 25.0381 28.9837C25.0381 29.4836 25.2784 29.9162 25.7591 30.2815C26.259 30.6276 27.028 31.041 28.0662 31.5216C29.1814 32.0407 30.0946 32.531 30.806 32.9924C31.5366 33.4346 32.1614 34.0306 32.6805 34.7805C33.1997 35.5303 33.4592 36.4532 33.4592 37.5491C33.4592 38.7603 33.1324 39.8562 32.4787 40.8368C31.825 41.7981 30.8925 42.5575 29.6812 43.1151C28.47 43.6534 27.0376 43.9226 25.3842 43.9226Z" fill="#FC2121"/>
<path d="M84.7979 0.317139C86.9321 0.317139 88.5567 0.797797 89.6718 1.75911C90.7869 2.7012 91.3445 3.96052 91.3445 5.53708C91.3445 6.01774 91.306 6.45033 91.2291 6.83486C90.9984 8.21915 90.412 9.44002 89.4699 10.4975C88.5278 11.5357 87.2781 12.2759 85.7208 12.7181L88.8931 20.649H82.6061L79.8952 13.1507H79.2896L77.963 20.649H72.2816L75.8865 0.317139H84.7979ZM79.9818 9.28621H82.7792C84.2788 9.28621 85.1632 8.57484 85.4324 7.15209C85.4709 6.92137 85.4901 6.75795 85.4901 6.66182C85.4901 6.14271 85.317 5.73896 84.971 5.45056C84.6441 5.16217 84.1539 5.01797 83.5002 5.01797H80.7027L79.9818 9.28621Z" fill="#FC2121"/>
<path d="M64.9606 4.78726L64.3839 8.16147H70.8727L70.0941 12.4586H63.6052L62.9419 16.15H70.2959L69.5173 20.649H56.4818L60.0868 0.317139H73.0934L72.3147 4.78726H64.9606Z" fill="#FC2121"/>
<path d="M56.6047 7.09441C56.3932 8.3249 55.9125 9.44963 55.1627 10.4686C54.4321 11.4684 53.4419 12.2759 52.1922 12.8911C50.9425 13.4872 49.4909 13.7852 47.8375 13.7852H45.04L43.8288 20.649H38.1474L41.7523 0.317139H50.2023C52.3364 0.317139 53.961 0.80741 55.0762 1.78795C56.1913 2.74927 56.7488 4.04704 56.7488 5.68128C56.7488 6.08503 56.7008 6.55608 56.6047 7.09441ZM48.097 9.31505C49.6928 9.31505 50.6157 8.57484 50.8656 7.09441C50.9041 6.82524 50.9233 6.63298 50.9233 6.51762C50.9233 5.99851 50.7502 5.59476 50.4042 5.30637C50.0773 4.99874 49.5678 4.84493 48.8757 4.84493H46.6262L45.8475 9.31505H48.097Z" fill="#FC2121"/>
<path d="M26.7583 0.317139L24.7107 12.1125C24.653 12.4585 24.6242 12.7854 24.6242 13.093C24.6242 13.8621 24.826 14.4581 25.2298 14.8811C25.6528 15.304 26.2968 15.5155 27.162 15.5155C28.2002 15.5155 29.0366 15.2175 29.6711 14.6215C30.3055 14.0255 30.7189 13.1891 30.9112 12.1125L32.9876 0.317139H38.6401L36.5637 12.1125C36.2368 14.0351 35.5735 15.6501 34.5738 16.9575C33.574 18.2649 32.3531 19.2454 30.9112 19.8991C29.4692 20.5336 27.8926 20.8508 26.1815 20.8508C23.9705 20.8508 22.192 20.274 20.8462 19.1205C19.5196 17.9669 18.8563 16.3134 18.8563 14.1601C18.8563 13.4679 18.9236 12.7854 19.0581 12.1125L21.1346 0.317139H26.7583Z" fill="#FC2121"/>
<path d="M7.81549 20.8509C5.46988 20.8509 3.57609 20.3703 2.13412 19.409C0.711373 18.4284 0 17.0057 0 15.1407C0 14.9869 0.0192263 14.7177 0.0576789 14.3332H6.02745C5.96977 14.9869 6.10435 15.4964 6.4312 15.8617C6.75805 16.227 7.25793 16.4097 7.93085 16.4097C8.48841 16.4097 8.93062 16.2847 9.25747 16.0347C9.60354 15.7848 9.77658 15.4291 9.77658 14.9677C9.77658 14.4293 9.52663 13.9871 9.02675 13.6411C8.54609 13.295 7.75781 12.8912 6.66191 12.4298C5.56602 11.9684 4.66238 11.5358 3.95101 11.132C3.23963 10.7091 2.62439 10.1419 2.10528 9.4305C1.58617 8.6999 1.32662 7.79627 1.32662 6.71959C1.32662 5.31607 1.67269 4.11443 2.36484 3.11466C3.05698 2.09567 4.0183 1.32662 5.24878 0.807505C6.49849 0.269168 7.92124 0 9.51702 0C10.959 0 12.2375 0.230715 13.3527 0.692146C14.4678 1.13435 15.333 1.77843 15.9482 2.62439C16.5827 3.47035 16.8999 4.47012 16.8999 5.62369C16.8999 5.93131 16.8903 6.16203 16.8711 6.31584H10.786C10.8052 6.21971 10.8148 6.08512 10.8148 5.91209C10.8148 5.45066 10.6706 5.09497 10.3822 4.84503C10.0938 4.57586 9.69967 4.44128 9.19979 4.44128C8.68068 4.44128 8.2577 4.57586 7.93085 4.84503C7.62323 5.09497 7.46942 5.45066 7.46942 5.91209C7.46942 6.41197 7.70975 6.84456 8.19041 7.20986C8.69029 7.55594 9.45934 7.9693 10.4976 8.44996C11.6127 8.96907 12.5259 9.45934 13.2373 9.92077C13.9679 10.363 14.5928 10.959 15.1119 11.7088C15.631 12.4586 15.8905 13.3815 15.8905 14.4774C15.8905 15.6887 15.5637 16.7846 14.91 17.7651C14.2563 18.7264 13.3238 19.4859 12.1126 20.0434C10.9013 20.5818 9.46896 20.8509 7.81549 20.8509Z" fill="#FC2121"/>
<path fill-rule="evenodd" clip-rule="evenodd" d="M103.102 9.99377L91 20.9625L101 20.9625L113.002 9.99377L105 0.462524L95.4999 0.462526L103.102 9.99377Z" fill="black"/>
<path fill-rule="evenodd" clip-rule="evenodd" d="M120.102 9.99377L108 20.9625L118 20.9625L130.002 9.99377L122 0.462524L112.5 0.462526L120.102 9.99377Z" fill="black"/>
</svg>
